<svg width="32" height="32" viewBox="0 0 32 32" fill="none" xmlns="http://www.w3.org/2000/svg">
<path d="M29.3334 16H21.3334L18.6667 20H13.3334L10.6667 16H2.66675" stroke="#3E3E40" stroke-width="3" stroke-linecap="round" stroke-linejoin="round"/>
<path d="M7.26675 6.81337L2.66675 16V24C2.66675 24.7073 2.9477 25.3856 3.4478 25.8857C3.94789 26.3858 4.62617 26.6667 5.33341 26.6667H26.6667C27.374 26.6667 28.0523 26.3858 28.5524 25.8857C29.0525 25.3856 29.3334 24.7073 29.3334 24V16L24.7334 6.81337C24.5126 6.36909 24.1723 5.9952 23.7507 5.73375C23.3291 5.47229 22.8429 5.33364 22.3467 5.33337H9.65341C9.1573 5.33364 8.6711 5.47229 8.24947 5.73375C7.82785 5.9952 7.48752 6.36909 7.26675 6.81337V6.81337Z" stroke="#3E3E40" stroke-width="3" stroke-linecap="round" stroke-linejoin="round"/>
</svg>
